<mxfile host="app.diagrams.net" agent="Mozilla/5.0 (Windows NT 10.0; Win64; x64) AppleWebKit/537.36 (KHTML, like Gecko) Chrome/139.0.0.0 Safari/537.36" version="28.1.0">
  <diagram name="Page-1" id="TQYIu1wNGqNmxOfWup1d">
    <mxGraphModel dx="1426" dy="743" grid="1" gridSize="10" guides="1" tooltips="1" connect="1" arrows="1" fold="1" page="1" pageScale="1" pageWidth="850" pageHeight="1100" math="0" shadow="0">
      <root>
        <mxCell id="0" />
        <mxCell id="1" parent="0" />
        <mxCell id="taqDpGdfJiKaTOQbcU3k-18" value="" style="edgeStyle=orthogonalEdgeStyle;rounded=0;orthogonalLoop=1;jettySize=auto;html=1;" edge="1" parent="1" source="taqDpGdfJiKaTOQbcU3k-11" target="taqDpGdfJiKaTOQbcU3k-7">
          <mxGeometry relative="1" as="geometry" />
        </mxCell>
        <mxCell id="taqDpGdfJiKaTOQbcU3k-11" value="" style="rounded=0;whiteSpace=wrap;html=1;" vertex="1" parent="1">
          <mxGeometry x="60" y="140" width="520" height="180" as="geometry" />
        </mxCell>
        <mxCell id="taqDpGdfJiKaTOQbcU3k-3" value="" style="edgeStyle=orthogonalEdgeStyle;rounded=0;orthogonalLoop=1;jettySize=auto;html=1;" edge="1" parent="1" source="taqDpGdfJiKaTOQbcU3k-1" target="taqDpGdfJiKaTOQbcU3k-2">
          <mxGeometry relative="1" as="geometry" />
        </mxCell>
        <mxCell id="taqDpGdfJiKaTOQbcU3k-16" value="Angles" style="edgeLabel;html=1;align=center;verticalAlign=middle;resizable=0;points=[];" vertex="1" connectable="0" parent="taqDpGdfJiKaTOQbcU3k-3">
          <mxGeometry x="0.1" y="2" relative="1" as="geometry">
            <mxPoint x="-9" y="2" as="offset" />
          </mxGeometry>
        </mxCell>
        <mxCell id="taqDpGdfJiKaTOQbcU3k-1" value="Clusterization" style="rounded=0;whiteSpace=wrap;html=1;fillColor=#f8cecc;strokeColor=#b85450;" vertex="1" parent="1">
          <mxGeometry x="80" y="160" width="110" height="60" as="geometry" />
        </mxCell>
        <mxCell id="taqDpGdfJiKaTOQbcU3k-5" value="" style="edgeStyle=orthogonalEdgeStyle;rounded=0;orthogonalLoop=1;jettySize=auto;html=1;" edge="1" parent="1" source="taqDpGdfJiKaTOQbcU3k-2" target="taqDpGdfJiKaTOQbcU3k-4">
          <mxGeometry relative="1" as="geometry" />
        </mxCell>
        <mxCell id="taqDpGdfJiKaTOQbcU3k-17" value="Angles" style="edgeLabel;html=1;align=center;verticalAlign=middle;resizable=0;points=[];" vertex="1" connectable="0" parent="taqDpGdfJiKaTOQbcU3k-5">
          <mxGeometry x="-0.1333" relative="1" as="geometry">
            <mxPoint as="offset" />
          </mxGeometry>
        </mxCell>
        <mxCell id="taqDpGdfJiKaTOQbcU3k-2" value="Base change" style="rounded=0;whiteSpace=wrap;html=1;" vertex="1" parent="1">
          <mxGeometry x="260" y="160" width="100" height="60" as="geometry" />
        </mxCell>
        <mxCell id="taqDpGdfJiKaTOQbcU3k-9" value="" style="edgeStyle=orthogonalEdgeStyle;rounded=0;orthogonalLoop=1;jettySize=auto;html=1;" edge="1" parent="1" source="taqDpGdfJiKaTOQbcU3k-4" target="taqDpGdfJiKaTOQbcU3k-7">
          <mxGeometry relative="1" as="geometry">
            <Array as="points">
              <mxPoint x="550" y="190" />
              <mxPoint x="550" y="230" />
            </Array>
          </mxGeometry>
        </mxCell>
        <mxCell id="taqDpGdfJiKaTOQbcU3k-4" value="Smoothness" style="rounded=0;whiteSpace=wrap;html=1;" vertex="1" parent="1">
          <mxGeometry x="420" y="160" width="100" height="60" as="geometry" />
        </mxCell>
        <mxCell id="taqDpGdfJiKaTOQbcU3k-10" value="" style="edgeStyle=orthogonalEdgeStyle;rounded=0;orthogonalLoop=1;jettySize=auto;html=1;" edge="1" parent="1" source="taqDpGdfJiKaTOQbcU3k-6" target="taqDpGdfJiKaTOQbcU3k-7">
          <mxGeometry relative="1" as="geometry">
            <Array as="points">
              <mxPoint x="550" y="270" />
              <mxPoint x="550" y="230" />
            </Array>
          </mxGeometry>
        </mxCell>
        <mxCell id="taqDpGdfJiKaTOQbcU3k-19" value="Angles" style="edgeLabel;html=1;align=center;verticalAlign=middle;resizable=0;points=[];" vertex="1" connectable="0" parent="taqDpGdfJiKaTOQbcU3k-10">
          <mxGeometry x="0.5125" y="-3" relative="1" as="geometry">
            <mxPoint as="offset" />
          </mxGeometry>
        </mxCell>
        <mxCell id="taqDpGdfJiKaTOQbcU3k-6" value="Curtain + Highway Shadow" style="rounded=0;whiteSpace=wrap;html=1;" vertex="1" parent="1">
          <mxGeometry x="80" y="240" width="440" height="60" as="geometry" />
        </mxCell>
        <mxCell id="taqDpGdfJiKaTOQbcU3k-12" value="" style="edgeStyle=orthogonalEdgeStyle;rounded=0;orthogonalLoop=1;jettySize=auto;html=1;" edge="1" parent="1" source="taqDpGdfJiKaTOQbcU3k-7" target="taqDpGdfJiKaTOQbcU3k-8">
          <mxGeometry relative="1" as="geometry" />
        </mxCell>
        <mxCell id="taqDpGdfJiKaTOQbcU3k-15" value="Angles" style="edgeLabel;html=1;align=center;verticalAlign=middle;resizable=0;points=[];" vertex="1" connectable="0" parent="taqDpGdfJiKaTOQbcU3k-12">
          <mxGeometry x="-0.2889" y="1" relative="1" as="geometry">
            <mxPoint as="offset" />
          </mxGeometry>
        </mxCell>
        <mxCell id="taqDpGdfJiKaTOQbcU3k-7" value="Side&amp;nbsp;&lt;span style=&quot;background-color: transparent; color: light-dark(rgb(0, 0, 0), rgb(255, 255, 255));&quot;&gt;Selection&lt;/span&gt;&lt;div&gt;Right HL&lt;span style=&quot;background-color: transparent; color: light-dark(rgb(0, 0, 0), rgb(255, 255, 255));&quot;&gt;&lt;/span&gt;&lt;/div&gt;" style="rounded=0;whiteSpace=wrap;html=1;" vertex="1" parent="1">
          <mxGeometry x="650" y="160" width="120" height="140" as="geometry" />
        </mxCell>
        <mxCell id="taqDpGdfJiKaTOQbcU3k-13" style="edgeStyle=orthogonalEdgeStyle;rounded=0;orthogonalLoop=1;jettySize=auto;html=1;" edge="1" parent="1" source="taqDpGdfJiKaTOQbcU3k-8">
          <mxGeometry relative="1" as="geometry">
            <mxPoint x="1080" y="230" as="targetPoint" />
          </mxGeometry>
        </mxCell>
        <mxCell id="taqDpGdfJiKaTOQbcU3k-14" value="PWM" style="edgeLabel;html=1;align=center;verticalAlign=middle;resizable=0;points=[];" vertex="1" connectable="0" parent="taqDpGdfJiKaTOQbcU3k-13">
          <mxGeometry x="0.0045" y="-3" relative="1" as="geometry">
            <mxPoint x="2" y="3" as="offset" />
          </mxGeometry>
        </mxCell>
        <mxCell id="taqDpGdfJiKaTOQbcU3k-8" value="ADB Slave" style="rounded=0;whiteSpace=wrap;html=1;" vertex="1" parent="1">
          <mxGeometry x="850" y="160" width="120" height="140" as="geometry" />
        </mxCell>
        <mxCell id="taqDpGdfJiKaTOQbcU3k-21" style="edgeStyle=orthogonalEdgeStyle;rounded=0;orthogonalLoop=1;jettySize=auto;html=1;entryX=0.5;entryY=1;entryDx=0;entryDy=0;" edge="1" parent="1" source="taqDpGdfJiKaTOQbcU3k-20" target="taqDpGdfJiKaTOQbcU3k-8">
          <mxGeometry relative="1" as="geometry" />
        </mxCell>
        <mxCell id="taqDpGdfJiKaTOQbcU3k-22" value="Distribution" style="edgeLabel;html=1;align=center;verticalAlign=middle;resizable=0;points=[];" vertex="1" connectable="0" parent="taqDpGdfJiKaTOQbcU3k-21">
          <mxGeometry x="-0.2" relative="1" as="geometry">
            <mxPoint as="offset" />
          </mxGeometry>
        </mxCell>
        <mxCell id="taqDpGdfJiKaTOQbcU3k-20" value="AFS Slave" style="rounded=0;whiteSpace=wrap;html=1;" vertex="1" parent="1">
          <mxGeometry x="650" y="320" width="120" height="90" as="geometry" />
        </mxCell>
      </root>
    </mxGraphModel>
  </diagram>
</mxfile>
